#!OML:ASF H:\Dans Jumps\Project 1\Capture day 1\Session 1\subject.ASF
:FULLY-SPECIFIED
:DEGREES
33
root 0.426179 14.5802 4.42763 1.28921 -3.78053 -2.34156
lowerback 14.1868 0.278613 0.980926
upperback 9.522 0.445403 1.91215
thorax 2.08782 0.199795 1.39151
lowerneck -11.6568 -0.104988 -2.06842
upperneck -7.80515 0.152554 2.17634
head -0.508818 0.132654 1.02037
rclavicle 4.17448e-015 -2.34566e-014
rhumerus 41.3428 7.31291 -31.7974
rradius 68.0055
rwrist 22.0326
rhand -24.1059 -38.0918
rfingers 7.12502
rthumb 2.37505 -68.0583
lclavicle 4.17448e-015 -2.34566e-014
lhumerus 44.4228 -6.90788 36.1336
lradius 66.1295
lwrist 6.01948
lhand -31.8568 -3.24349
lfingers 7.12502
lthumb -5.1105 26.6749
rfemur -43.2278 -11.2734 15.0981
rtibia 77.54
rfoot -31.5524 -5.41409
rtoes -12.5763
lfemur -40.3074 16.7036 -11.6604
ltibia 77.6975
lfoot -30.3262 14.5787
ltoes -12.9814
34
root 0.426874 14.5815 4.42869 1.2929 -3.79265 -2.33581
lowerback 14.1835 0.275841 0.972583
upperback 9.52832 0.440575 1.90217
thorax 2.09643 0.197249 1.38641
lowerneck -11.6343 -0.105538 -2.04323
upperneck -7.85367 0.148887 2.17031
head -0.527581 0.129934 1.01399
rclavicle 1.05356e-014 -1.53064e-014
rhumerus 41.3738 7.29784 -31.8232
rradius 67.9915
rwrist 22.0252
rhand -24.0908 -38.0473
rfingers 7.12502
rthumb 2.38968 -68.0136
lclavicle 1.05356e-014 -1.53064e-014
lhumerus 44.4268 -6.87805 36.1115
lradius 66.1204
lwrist 6.05453
lhand -31.8476 -3.24833
lfingers 7.12502
lthumb -5.10156 26.6703
rfemur -43.2233 -11.2546 15.0913
rtibia 77.5319
rfoot -31.5474 -5.39812
rtoes -12.5046
lfemur -40.2991 16.7145 -11.6689
ltibia 77.6869
lfoot -30.3259 14.5749
ltoes -12.9458
35
root 0.427955 14.5819 4.42924 1.29648 -3.78371 -2.35463
lowerback 14.2011 0.272098 0.986672
upperback 9.52264 0.437698 1.91187
thorax 2.0812 0.196159 1.38886
lowerneck -11.6687 -0.116526 -2.0564
upperneck -7.82517 0.135909 2.17137
head -0.512878 0.123944 1.01628
rclavicle -1.05356e-014 -2.16675e-014
rhumerus 41.374 7.28168 -31.8129
rradius 67.9935
rwrist 22.017
rhand -24.0786 -38.0589
rfingers 7.12502
rthumb 2.4014 -68.0252
lclavicle -1.05356e-014 -2.16675e-014
lhumerus 44.4102 -6.86939 36.1365
lradius 66.1167
lwrist 6.01847
lhand -31.8686 -3.02967
lfingers 7.12502
lthumb -5.12183 26.8884
rfemur -43.2143 -11.2609 15.1082
rtibia 77.5207
rfoot -31.5452 -5.42238
rtoes -12.5946
lfemur -40.2997 16.7071 -11.6452
ltibia 77.6823
lfoot -30.3477 14.4942
ltoes -12.8035
36
root 0.428759 14.5829 4.43074 1.30923 -3.7771 -2.34934
lowerback 14.1891 0.270728 0.98077
upperback 9.52107 0.435096 1.90962
thorax 2.08585 0.194684 1.39018
lowerneck -11.6864 -0.117148 -1.98975
upperneck -7.83004 0.12561 2.10234
head -0.511595 0.116839 0.982831
rclavicle 1.32192e-014 1.94809e-014
rhumerus 41.3761 7.26669 -31.8269
rradius 67.993
rwrist 22.0161
rhand -24.3731 -38.1904
rfingers 7.12502
rthumb 2.11705 -68.1597
lclavicle 1.32192e-014 1.94809e-014
lhumerus 44.4135 -6.86047 36.1435
lradius 66.1016
lwrist 5.99713
lhand -31.8272 -3.02888
lfingers 7.12502
lthumb -5.08192 26.8902
rfemur -43.2154 -11.261 15.0987
rtibia 77.5142
rfoot -31.5159 -5.43515
rtoes -12.522
lfemur -40.306 16.7036 -11.6586
ltibia 77.6767
lfoot -30.3435 14.5064
ltoes -12.8064
37
root 0.42954 14.583 4.4319 1.31143 -3.7783 -2.34815
lowerback 14.1977 0.267604 0.973998
upperback 9.51641 0.430527 1.91269
thorax 2.07632 0.191987 1.39768
lowerneck -11.6507 -0.113089 -1.99363
upperneck -7.87519 0.131072 2.09338
head -0.53156 0.119419 0.980726
rclavicle -3.57812e-015 -1.43125e-014
rhumerus 41.3753 7.26443 -31.8409
rradius 68.0011
rwrist 22.0056
rhand -24.4257 -38.2262
rfingers 7.12502
rthumb 2.06621 -68.196
lclavicle -3.57812e-015 -1.43125e-014
lhumerus 44.3995 -6.8498 36.1695
lradius 66.0855
lwrist 5.95651
lhand -31.8241 -3.09579
lfingers 7.12502
lthumb -5.07888 26.8233
rfemur -43.2103 -11.2541 15.0924
rtibia 77.5097
rfoot -31.5483 -5.41206
rtoes -12.5299
lfemur -40.3053 16.7213 -11.6686
ltibia 77.6779
lfoot -30.3396 14.5363
ltoes -12.8539
38
root 0.430639 14.5808 4.43234 1.33608 -3.76235 -2.36747
lowerback 14.1876 0.256741 0.987372
upperback 9.50806 0.417746 1.92626
thorax 2.07298 0.185815 1.40586
lowerneck -11.6252 -0.123638 -2.00646
upperneck -7.90692 0.117818 2.08075
head -0.545312 0.112855 0.978459
rclavicle -9.93923e-016 1.53064e-014
rhumerus 41.3889 7.26076 -31.8454
rradius 68.0033
rwrist 22.0276
rhand -24.3881 -38.2386
rfingers 7.12502
rthumb 2.10258 -68.208
lclavicle -9.93923e-016 1.53064e-014
lhumerus 44.4151 -6.81989 36.168
lradius 66.0425
lwrist 5.97602
lhand -31.8634 -3.17559
lfingers 7.12502
lthumb -5.11686 26.7426
rfemur -43.2449 -11.2693 15.1153
rtibia 77.5139
rfoot -31.5298 -5.45738
rtoes -12.642
lfemur -40.3345 16.722 -11.6629
ltibia 77.6851
lfoot -30.3022 14.5935
ltoes -13.3148
39
root 0.431529 14.5837 4.43496 1.32817 -3.75469 -2.37592
lowerback 14.173 0.257375 0.998213
upperback 9.51785 0.419243 1.92974
thorax 2.09125 0.186956 1.40335
lowerneck -11.6382 -0.121398 -2.02231
upperneck -7.89204 0.123233 2.09655
head -0.538645 0.11615 0.98634
rclavicle -1.25234e-014 2.18663e-015
rhumerus 41.3791 7.23292 -31.8737
rradius 67.9829
rwrist 22.0415
rhand -24.3713 -38.2278
rfingers 7.12502
rthumb 2.11875 -68.197
lclavicle -1.25234e-014 2.18663e-015
lhumerus 44.4043 -6.82958 36.2099
lradius 66.0527
lwrist 5.95258
lhand -31.8934 -3.10233
lfingers 7.12502
lthumb -5.14582 26.8152
rfemur -43.2049 -11.2663 15.1161
rtibia 77.4953
rfoot -31.5101 -5.46408
rtoes -12.5097
lfemur -40.3183 16.7139 -11.6533
ltibia 77.6858
lfoot -30.3356 14.5346
ltoes -12.9552
